<?xml version="1.0" encoding="iso-8859-1"?>
<!-- Uploaded to: SVG Repo, www.svgrepo.com, Generator: SVG Repo Mixer Tools -->
<svg fill="#000000" height="800px" width="800px" version="1.1" id="Capa_1" xmlns="http://www.w3.org/2000/svg" xmlns:xlink="http://www.w3.org/1999/xlink" 
	 viewBox="0 0 59 59" xml:space="preserve">
<g>
	<circle cx="20.5" cy="12.248" r="1.5"/>
	<circle cx="35.5" cy="16.248" r="1.5"/>
	<path d="M58.153,30.237c-0.078-0.242-0.213-0.46-0.407-0.614l-8.902-8.196c-0.251-0.201-0.565-0.312-0.888-0.312h-1.072
		c-0.585-4.976-3.387-10.716-4.637-13.075c-0.255-0.479-0.679-0.846-1.194-1.033L36.605,5.39c-0.683-0.25-1.462-0.154-2.066,0.248
		l-0.591,0.395c-0.07,0.047-0.151,0.071-0.235,0.071h-9.139c-0.084,0-0.166-0.024-0.234-0.07l-0.592-0.395
		c-0.604-0.404-1.383-0.498-2.066-0.249l-4.447,1.617c-0.517,0.188-0.941,0.556-1.194,1.034c-1.25,2.358-4.053,8.098-4.639,13.074
		H11.25c-0.321,0-0.637,0.11-0.93,0.349l-9.012,8.113c-0.219,0.175-0.366,0.404-0.451,0.652C0.339,30.635,0,31.259,0,31.967v19.562
		c0,1.224,0.996,2.219,2.219,2.219h54.562c1.224,0,2.219-0.995,2.219-2.219V31.967C59,31.264,58.665,30.643,58.153,30.237z
		 M36,8.748h2v2h-2V8.748z M32,9.748h2v2h-2V9.748z M35.5,12.748c1.93,0,3.5,1.57,3.5,3.5s-1.57,3.5-3.5,3.5s-3.5-1.57-3.5-3.5
		S33.57,12.748,35.5,12.748z M26,14.748v2h2v2h-2v2h-2v-2h-2v-2h2v-2H26z M20.5,8.748c1.93,0,3.5,1.57,3.5,3.5s-1.57,3.5-3.5,3.5
		s-3.5-1.57-3.5-3.5S18.57,8.748,20.5,8.748z M11.296,23.273c0.002,0.047,0.008,0.09,0.01,0.137
		c0.009,0.189,0.024,0.374,0.042,0.557c0.009,0.089,0.015,0.181,0.026,0.268c0.032,0.25,0.073,0.495,0.125,0.733
		c0.016,0.072,0.038,0.139,0.055,0.21c0.042,0.169,0.087,0.336,0.14,0.499c0.029,0.089,0.063,0.175,0.096,0.261
		c0.051,0.136,0.105,0.27,0.165,0.4c0.039,0.085,0.08,0.168,0.123,0.25c0.065,0.125,0.135,0.245,0.209,0.364
		c0.047,0.075,0.093,0.15,0.143,0.222c0.082,0.118,0.172,0.23,0.264,0.342c0.052,0.062,0.1,0.127,0.154,0.186
		c0.106,0.116,0.223,0.225,0.342,0.333c0.05,0.045,0.095,0.094,0.146,0.137c0.174,0.145,0.358,0.282,0.558,0.409
		c0.741,0.469,1.774,0.389,2.452-0.191l5.288-4.533c0.136-0.116,0.281-0.218,0.433-0.309c0.118-0.07,0.243-0.126,0.369-0.18
		c0.034-0.015,0.066-0.034,0.1-0.047c0.145-0.056,0.295-0.098,0.446-0.131c0.018-0.004,0.035-0.011,0.053-0.014
		c0.167-0.034,0.337-0.055,0.507-0.06l11.171-0.001c0.537,0.017,1.056,0.169,1.507,0.435c0.151,0.09,0.296,0.192,0.431,0.308
		l5.289,4.534c0.38,0.325,0.864,0.505,1.363,0.505c0.145,0,0.285-0.03,0.425-0.06c0.026-0.005,0.052-0.005,0.078-0.011
		c0.206-0.052,0.404-0.129,0.583-0.243c0.201-0.127,0.388-0.266,0.563-0.413c0.057-0.048,0.108-0.102,0.163-0.153
		c0.114-0.104,0.226-0.21,0.328-0.322c0.06-0.065,0.114-0.136,0.17-0.205c0.087-0.107,0.173-0.216,0.251-0.329
		c0.054-0.079,0.105-0.16,0.156-0.243c0.07-0.114,0.135-0.231,0.197-0.351c0.046-0.089,0.091-0.178,0.133-0.271
		c0.057-0.127,0.108-0.259,0.156-0.391c0.035-0.093,0.072-0.184,0.103-0.281c0.069-0.217,0.129-0.44,0.179-0.669
		c0.022-0.1,0.036-0.207,0.054-0.31c0.027-0.151,0.053-0.303,0.072-0.459c0.015-0.119,0.025-0.241,0.036-0.364
		c0.014-0.16,0.024-0.322,0.03-0.486c0.003-0.074,0.012-0.143,0.013-0.218h0.732l7.205,6.633H4.105L11.296,23.273z M27,51.748H2.219
		C2.098,51.748,2,51.65,2,51.529v-1.781h25V51.748z M5,42.748v-2h15v2H5z M22,42.748v-2h2v2H22z M27,33.748H2v-1.674
		c0.065,0.009,0.126,0.03,0.194,0.03H27V33.748z M57,51.529c0,0.121-0.098,0.219-0.219,0.219H29v-2h28V51.529z M46,41.748
		c0-2.206,1.794-4,4-4s4,1.794,4,4s-1.794,4-4,4S46,43.954,46,41.748z M57,33.748H29v-1.645h27.807c0.067,0,0.128-0.021,0.193-0.03
		V33.748z"/>
	<circle cx="50" cy="41.748" r="2"/>
</g>
</svg>